<svg width="193" height="51" viewBox="0 0 193 51" fill="none" xmlns="http://www.w3.org/2000/svg">
<path d="M84.6733 9.37056V2.56284H91.9843V9.37056H84.6733V9.37056ZM84.6733 40.0957V12.9853H91.9843V40.0957H84.6733Z" fill="#00214D"/>
<path d="M108.695 40.8186C105.938 40.8186 103.422 40.2162 101.204 38.951C98.987 37.6859 97.2492 35.999 95.9908 33.8302C94.7323 31.6613 94.1331 29.1913 94.1331 26.5405C94.1331 22.4438 95.5113 19.0098 98.2679 16.2987C101.025 13.5877 104.5 12.2623 108.695 12.2623C112.83 12.2623 116.306 13.5877 119.062 16.2987C121.819 19.0098 123.197 22.4438 123.197 26.5405C123.197 30.6371 121.819 34.0109 119.002 36.7219C116.246 39.4932 112.83 40.8186 108.695 40.8186ZM108.695 33.9506C110.792 33.9506 112.53 33.2277 113.849 31.8421C115.167 30.4564 115.826 28.649 115.826 26.4802C115.826 24.3114 115.167 22.504 113.849 21.1184C112.53 19.7327 110.792 19.0098 108.695 19.0098C106.598 19.0098 104.86 19.7327 103.541 21.1184C102.223 22.504 101.564 24.3114 101.564 26.4802C101.564 27.5646 101.744 28.5286 102.103 29.4925C102.463 30.4564 102.942 31.2396 103.601 31.8421C104.261 32.5048 104.98 32.9867 105.879 33.3482C106.658 33.7699 107.616 33.9506 108.695 33.9506Z" fill="#00214D"/>
<path d="M125.404 40.6389V2.56284H132.324V40.6389H125.404V40.6389Z" fill="#00214D"/>
<path d="M148.899 40.8185C146.143 40.8185 143.626 40.2161 141.408 38.9509C139.191 37.6858 137.453 35.9989 136.195 33.8301C134.936 31.6612 134.337 29.1912 134.337 26.5404C134.337 22.4437 135.715 19.0097 138.472 16.2986C141.229 13.5876 144.704 12.2622 148.899 12.2622C153.034 12.2622 156.51 13.5876 159.266 16.2986C162.023 19.0097 163.401 22.4437 163.401 26.5404C163.401 30.6371 162.023 34.0108 159.206 36.7218C156.45 39.4931 153.034 40.8185 148.899 40.8185ZM148.899 33.9506C150.997 33.9506 152.734 33.2276 154.053 31.842C155.371 30.4563 156.03 28.649 156.03 26.4801C156.03 24.3113 155.371 22.5039 154.053 21.1183C152.734 19.7326 150.997 19.0097 148.899 19.0097C146.802 19.0097 145.064 19.7326 143.746 21.1183C142.427 22.5039 141.768 24.3113 141.768 26.4801C141.768 27.5645 141.948 28.5285 142.307 29.4924C142.667 30.4563 143.146 31.2395 143.805 31.842C144.465 32.5047 145.184 32.9866 146.083 33.3481C146.862 33.7698 147.82 33.9506 148.899 33.9506Z" fill="#00214D"/>
<path d="M73.8218 3.22433V14.4902C71.6046 13.0443 69.1476 12.2611 66.4509 12.2611C63.7543 12.2611 61.2973 12.8636 59.14 14.1288C56.9827 15.3939 55.3047 17.0808 54.0463 19.2496C52.8478 21.4184 52.2485 23.8885 52.2485 26.5995C52.2485 29.3106 52.8478 31.7807 54.0463 33.9495C55.2448 36.1183 56.9227 37.8654 59.14 39.0703C61.2973 40.3355 63.7543 40.938 66.4509 40.938C67.3498 40.938 68.2487 40.8175 69.0877 40.697C69.627 40.5162 71.4847 39.974 72.3836 39.1908C73.5222 38.1667 74.1214 37.1425 74.3611 35.6966V38.2269V40.0945H75.6795H79.6945H81.0728V3.22433H73.8218ZM72.3237 31.8409C70.9454 33.2868 69.1476 33.9495 67.0502 33.9495C64.9528 33.9495 63.155 33.2265 61.7767 31.8409C60.3984 30.4553 59.6793 28.6479 59.6793 26.5393C59.6793 24.3705 60.3984 22.6234 61.7767 21.2377C63.155 19.8521 64.9528 19.1291 67.0502 19.1291C69.1476 19.1291 70.9454 19.8521 72.3237 21.2377C73.702 22.6234 74.4211 24.4307 74.4211 26.5393C74.4211 28.6479 73.702 30.395 72.3237 31.8409Z" fill="#00214D"/>
<path d="M188.266 13.0454L187.127 15.7564C184.61 13.4069 181.614 12.2622 178.078 12.2622C174.303 12.2622 171.127 13.5876 168.49 16.2384C165.913 18.8892 164.595 22.1425 164.595 25.9379C164.595 28.4682 165.194 30.7575 166.333 32.8661C167.531 34.9747 169.149 36.6014 171.187 37.8063C173.284 39.0112 175.561 39.6136 178.018 39.6136C180.955 39.6136 183.532 38.8304 185.749 37.2038V38.228C185.749 40.1558 185.09 41.7222 183.831 42.9271C182.513 44.0718 180.895 44.6742 178.977 44.6742C177.539 44.6742 176.221 44.373 175.022 43.7103C173.824 43.0476 172.985 42.1439 172.625 40.9993H165.314C165.913 44.0718 167.471 46.5419 169.928 48.3492C172.385 50.1566 175.442 51 179.157 51C182.033 51 184.49 50.4578 186.528 49.3131C188.625 48.2287 190.183 46.6021 191.322 44.5538C192.46 42.5054 193 40.0353 193 37.2038V13.1056H188.266V13.0454ZM183.891 31.0588C182.573 32.3842 180.955 33.0469 178.917 33.0469C176.88 33.0469 175.262 32.3842 173.943 31.0588C172.625 29.7334 172.026 28.0465 172.026 25.9982C172.026 23.9498 172.685 22.3232 174.003 20.9978C175.322 19.6724 176.94 19.0097 178.917 19.0097C180.955 19.0097 182.633 19.6724 183.891 20.9978C185.209 22.3232 185.809 24.0101 185.809 25.9982C185.809 27.9863 185.15 29.6731 183.891 31.0588Z" fill="#00214D"/>
<path d="M16.2988 0C7.33163 0 0.0563971 7.22178 0 16.1926V32.6673H16.468C25.4351 32.6108 32.6539 25.3326 32.6539 16.3618C32.6539 7.33462 25.3223 0 16.2988 0Z" fill="#17355C"/>
<path d="M0 38.4221C0.225589 37.1809 0.225589 36.1089 2.08669 34.4163C3.77861 32.8929 5.47052 32.6673 6.03449 32.6673H0V38.4221Z" fill="#17355C"/>
<path d="M43.7957 8.0303C42.1624 9.573 40.5291 9.80154 39.9846 9.80154H45.8102V3.97359C45.5924 5.2306 45.5924 6.3162 43.7957 8.0303Z" fill="#E5E5E8"/>
<path d="M29.4391 9.59143C20.472 9.64785 13.2532 16.926 13.2532 25.8968C13.2532 34.9241 20.5848 42.2023 29.5519 42.2023C38.5191 42.2023 45.7943 34.9805 45.8507 26.0097V9.59143H29.4391Z" fill="#E5E5E8"/>
<path d="M29.4392 9.59143C20.472 9.64785 13.2532 16.926 13.2532 25.8968C13.2532 28.3229 13.7607 30.5797 14.7195 32.6673H16.4678C25.435 32.6108 32.6538 25.3326 32.6538 16.3618C32.6538 13.9358 32.1462 11.679 31.1875 9.59143H29.4392Z" fill="#002140"/>
</svg>
